<svg width="770" height="770" viewBox="0 0 770 770" fill="none" xmlns="http://www.w3.org/2000/svg">
<path d="M385 0C597.63 0 770 172.37 770 385C770 597.63 597.63 770 385 770C172.37 770 0 597.63 0 385C0 174.411 169.077 3.31393 378.889 0.0488281C376.849 108.522 379.666 193.417 355.592 275.031C331.564 356.49 280.665 434.827 170.693 529.607C164.242 535.168 164.954 545.631 172.335 550.066C220.066 578.745 255.254 605.511 285.658 637.406C316.07 669.31 341.776 706.431 370.462 755.915C375.301 764.262 387.443 764.258 392.3 755.935C420 708.462 445.809 672.613 477.306 640.926C508.807 609.234 546.081 581.622 596.798 550.713C604.343 546.114 604.765 535.355 597.986 529.966L597.658 529.713C494.379 452.83 445.469 379.142 420.073 295.489C394.62 211.646 392.743 117.77 383.865 0.00292969C384.243 0.00183862 384.622 0 385 0Z" fill="#FAFAFA"/>
</svg>
